<?xml version="1.0" encoding="iso-8859-1"?><!-- Generator: Adobe Illustrator 16.0.0, SVG Export Plug-In . SVG Version: 6.00 Build 0)  -->
<!DOCTYPE svg PUBLIC "-//W3C//DTD SVG 1.1//EN" "http://www.w3.org/Graphics/SVG/1.1/DTD/svg11.dtd">
<svg xmlns:xlink="http://www.w3.org/1999/xlink" style="enable-background:new 0 0 512.015 512.015;"
    height="512.015px" id="Capa_1" version="1.1" viewBox="0 0 512.015 512.015" width="512.015px"
    x="0px" xmlns="http://www.w3.org/2000/svg" y="0px" xml:space="preserve">
<g>
	<path d="M462.504,468.219l-33.938,33.938c-6.062,6.03-23.812,9.843-24.344,9.843c-107.438,0.906-210.875-41.281-286.891-117.312
		C41.098,318.469-1.137,214.625,0.035,106.875c0-0.063,3.891-17.313,9.938-23.313l33.938-33.969
		c12.453-12.438,36.297-18.063,53-12.5l7.156,2.406c16.703,5.563,34.156,24,38.781,40.969l17.094,62.719
		c4.641,17-1.594,41.188-14.031,53.625L123.223,219.5c22.25,82.469,86.922,147.125,169.343,169.406l22.688-22.688
		c12.438-12.438,36.688-18.655,53.688-14.03l62.719,17.125c16.938,4.594,35.375,22.03,40.969,38.75l2.375,7.155
		C480.566,431.938,474.941,455.781,462.504,468.219z M466.754,0l-67.875,67.875L331.004,0l-45.267,45.25l67.892,67.875L285.737,181
		l45.267,45.281l67.875-67.906l67.875,67.906L512.004,181l-67.875-67.875l67.875-67.875L466.754,0z" />
</g>
</svg>
